<svg xmlns="http://www.w3.org/2000/svg" viewBox="0 0 200 200">
  <!-- Body -->
  <ellipse cx="100" cy="120" rx="40" ry="50" fill="#A9A9A9" stroke="#333333" stroke-width="3"/>
  
  <!-- Head -->
  <circle cx="100" cy="70" r="30" fill="#7986CB" stroke="#333333" stroke-width="3"/>
  
  <!-- Eyes -->
  <ellipse cx="85" cy="65" rx="7" ry="9" fill="white" stroke="#2C3E50" stroke-width="2"/>
  <ellipse cx="115" cy="65" rx="7" ry="9" fill="white" stroke="#2C3E50" stroke-width="2"/>
  
  <!-- Pupils (slightly misaligned for comedic effect) -->
  <circle cx="88" cy="68" r="3" fill="#2C3E50"/>
  <circle cx="112" cy="64" r="3" fill="#2C3E50"/>
  
  <!-- Mouth -->
  <path d="M85 85 Q100 95 115 85" fill="none" stroke="#2C3E50" stroke-width="3" stroke-linecap="round"/>
  
  <!-- Arms -->
  <path d="M60 100 Q40 120 35 150" fill="none" stroke="#2C3E50" stroke-width="5" stroke-linecap="round"/>
  <path d="M140 100 Q160 120 165 150" fill="none" stroke="#2C3E50" stroke-width="5" stroke-linecap="round"/>
  
  <!-- Hands -->
  <circle cx="35" cy="150" r="8" fill="#7986CB" stroke="#333333" stroke-width="2"/>
  <circle cx="165" cy="150" r="8" fill="#7986CB" stroke="#333333" stroke-width="2"/>
  
  <!-- Legs -->
  <path d="M80 170 L75 195" fill="none" stroke="#2C3E50" stroke-width="6" stroke-linecap="round"/>
  <path d="M120 170 L125 195" fill="none" stroke="#2C3E50" stroke-width="6" stroke-linecap="round"/>
  
  <!-- Feet -->
  <ellipse cx="72" cy="195" rx="10" ry="5" fill="#708090" stroke="#333333" stroke-width="2"/>
  <ellipse cx="128" cy="195" rx="10" ry="5" fill="#708090" stroke="#333333" stroke-width="2"/>
  
  <!-- Hat (proper fedora/cowboy hat style) -->
  <ellipse cx="100" cy="47" rx="40" ry="10" fill="#8B7D6B" stroke="#333333" stroke-width="2"/>
  <path d="M80 47 Q100 25 120 47" fill="#6B5B4B" stroke="#333333" stroke-width="2"/>
  <!-- Hat Band -->
  <path d="M80 47 Q100 40 120 47" fill="none" stroke="#4A4A4A" stroke-width="3" stroke-linecap="round"/>
  
  <!-- Battle Ready Expression (slightly raised eyebrows) -->
  <path d="M78 58 Q85 55 92 58" fill="none" stroke="#2C3E50" stroke-width="2" stroke-linecap="round"/>
  <path d="M108 58 Q115 55 122 58" fill="none" stroke="#2C3E50" stroke-width="2" stroke-linecap="round"/>
</svg>
